<?xml version="1.0" standalone="no"?>
<!DOCTYPE svg PUBLIC "-//W3C//DTD SVG 20010904//EN"
 "http://www.w3.org/TR/2001/REC-SVG-20010904/DTD/svg10.dtd">
<svg version="1.0" xmlns="http://www.w3.org/2000/svg"
 width="1320.000000pt" height="1320.000000pt" viewBox="0 0 1320.000000 1320.000000"
 preserveAspectRatio="xMidYMid meet">
<metadata>
Created by potrace 1.11, written by Peter Selinger 2001-2013
</metadata>
<g transform="translate(0.000000,1320.000000) scale(0.100000,-0.100000)"
fill="#000000" stroke="none">
<path d="M12408 9875 c-1 -1 -21 -5 -43 -8 -100 -12 -211 -74 -294 -163 -36
-40 -90 -122 -151 -230 -52 -92 -97 -172 -99 -178 -2 -6 -7 -13 -10 -16 -3 -3
-14 -21 -24 -40 -38 -71 -52 -95 -60 -101 -5 -3 -7 -8 -6 -10 2 -2 -37 -76
-87 -164 -50 -88 -108 -191 -130 -230 -21 -38 -45 -79 -51 -90 -7 -11 -19 -33
-28 -50 -9 -16 -26 -48 -39 -70 -13 -22 -40 -71 -60 -108 l-37 -68 23 -42 c13
-23 26 -43 31 -45 4 -2 7 -7 7 -12 0 -5 27 -54 60 -110 33 -56 60 -103 60
-106 0 -2 18 -33 40 -69 22 -36 40 -67 40 -69 0 -3 27 -50 60 -106 33 -56 60
-104 60 -107 0 -3 8 -17 18 -31 11 -15 33 -52 49 -82 17 -30 53 -93 80 -140
27 -47 52 -92 56 -100 4 -8 16 -28 26 -45 11 -16 32 -52 46 -80 37 -68 42 -72
56 -42 7 15 16 27 21 27 4 0 8 5 8 10 0 6 20 47 45 90 25 44 57 102 72 128 14
26 67 119 116 207 50 88 97 174 105 190 9 17 18 32 21 35 3 3 14 21 25 40 17
34 59 108 99 180 11 19 67 121 126 225 58 105 109 192 113 193 5 2 8 12 8 22
0 10 4 21 9 24 5 4 27 39 49 79 88 161 105 193 114 204 5 6 21 35 36 65 16 29
40 73 54 98 15 25 27 48 28 52 0 4 7 23 15 43 23 53 30 102 30 195 -1 93 -7
136 -24 169 -7 11 -9 21 -6 21 3 0 -7 24 -22 53 -77 150 -220 275 -378 328
-22 7 -42 14 -45 14 -3 1 -14 4 -25 8 -21 7 -181 18 -187 12z"/>
<path d="M665 9849 c-22 -4 -50 -10 -62 -13 -33 -7 -143 -58 -143 -66 0 -3
-12 -13 -27 -21 -43 -21 -156 -140 -178 -187 -11 -23 -23 -42 -27 -42 -5 0 -8
-9 -8 -20 0 -11 -5 -20 -12 -20 -6 0 -9 -3 -5 -6 3 -3 -1 -25 -9 -47 -30 -85
-29 -244 3 -327 3 -8 7 -21 9 -28 4 -21 54 -120 98 -197 23 -38 48 -83 56
-100 8 -16 17 -32 20 -35 3 -3 12 -18 20 -35 8 -16 31 -57 50 -90 19 -33 46
-80 58 -105 13 -25 27 -52 32 -60 17 -25 170 -300 170 -304 0 -2 36 -67 80
-144 44 -78 80 -146 80 -152 0 -5 3 -10 8 -10 4 0 12 -10 18 -23 18 -38 79
-152 84 -157 3 -3 14 -23 26 -45 11 -22 31 -57 42 -77 32 -55 61 -108 85 -153
12 -22 24 -42 27 -45 3 -3 14 -24 24 -47 11 -24 23 -43 28 -43 5 0 7 -4 3 -9
-3 -5 -1 -12 4 -16 5 -3 16 -18 24 -33 7 -15 27 -52 44 -82 17 -30 47 -86 68
-125 21 -38 45 -78 53 -87 8 -10 11 -18 6 -18 -5 0 -4 -4 1 -8 6 -4 16 -18 22
-32 11 -22 35 -66 100 -180 11 -19 34 -61 51 -92 71 -129 92 -167 146 -262 31
-54 56 -100 56 -101 0 -1 33 -62 74 -134 41 -72 78 -140 81 -151 4 -11 11 -20
16 -20 5 0 9 -9 9 -20 0 -11 3 -20 8 -20 4 0 27 -40 52 -88 25 -48 48 -89 52
-92 4 -3 12 -17 17 -30 6 -14 19 -38 29 -55 10 -16 38 -66 62 -110 23 -44 46
-84 51 -90 4 -5 23 -39 41 -75 19 -36 64 -117 99 -180 36 -63 81 -142 99 -175
18 -33 50 -91 72 -130 21 -38 47 -86 56 -105 9 -19 20 -37 23 -40 3 -3 22 -34
42 -70 19 -36 54 -99 77 -140 23 -41 55 -97 70 -125 15 -27 49 -86 77 -130 27
-44 52 -87 56 -95 12 -24 30 -53 55 -87 12 -17 22 -36 22 -41 0 -6 3 -12 8
-14 4 -1 30 -37 57 -78 28 -41 57 -83 66 -95 133 -166 197 -241 254 -297 37
-38 69 -68 70 -68 2 0 19 -15 38 -33 57 -54 217 -172 217 -161 0 4 8 0 18 -8
25 -23 167 -92 237 -116 156 -54 240 -67 425 -67 147 0 215 8 325 36 69 19
225 81 225 91 0 5 3 7 8 4 10 -6 182 92 210 121 7 7 16 13 20 13 4 0 23 14 42
30 19 17 52 45 74 63 75 62 228 221 292 302 21 27 46 58 55 68 9 10 34 43 55
75 21 31 45 63 52 71 8 8 25 33 39 55 14 23 31 44 37 48 6 4 7 8 2 8 -5 0 -2
8 6 18 41 45 378 620 378 644 0 13 -184 341 -206 368 -7 8 -13 18 -13 23 -1
12 -62 117 -72 123 -5 3 -7 10 -4 15 4 5 1 9 -4 9 -6 0 -11 4 -11 8 0 7 -49
95 -161 290 -11 17 -29 49 -40 70 -12 20 -30 51 -40 67 -10 17 -25 44 -33 61
-8 17 -19 35 -25 38 -6 4 -9 11 -6 16 3 4 -2 11 -11 14 -11 4 -19 -3 -27 -24
-6 -16 -15 -30 -19 -30 -4 0 -8 -7 -8 -15 0 -8 -4 -15 -10 -15 -5 0 -10 -4
-10 -10 0 -5 -84 -154 -187 -330 -104 -176 -192 -328 -198 -338 -192 -339
-240 -401 -400 -520 -15 -11 -85 -43 -130 -59 -58 -20 -171 -27 -240 -13 -77
15 -74 14 -116 32 -20 9 -45 19 -57 22 -12 4 -22 12 -22 17 0 5 -5 9 -11 9
-30 0 -141 107 -192 183 -63 96 -213 367 -209 380 1 4 -2 7 -7 7 -5 0 -26 33
-46 73 -21 39 -44 79 -51 88 -8 8 -14 19 -14 23 0 4 -26 53 -59 109 -32 56
-69 122 -83 147 -14 25 -34 61 -45 80 -11 19 -37 66 -59 105 -21 38 -44 79
-51 90 -7 11 -17 30 -22 42 -6 12 -21 39 -34 60 -13 21 -40 67 -59 103 -34 63
-53 97 -100 178 -42 73 -78 137 -90 162 -7 14 -29 53 -50 88 -21 34 -38 64
-38 66 0 3 -91 165 -152 271 -16 28 -34 62 -41 78 -6 15 -15 27 -19 27 -4 0
-8 4 -8 8 0 10 -103 196 -120 216 -7 9 -9 16 -6 16 4 0 -1 12 -12 28 -19 27
-127 216 -149 262 -7 14 -17 32 -23 40 -33 50 -100 174 -100 185 0 7 -4 15 -8
17 -5 2 -32 46 -62 98 -29 52 -82 147 -118 210 -35 63 -77 138 -92 165 -45 80
-93 164 -123 214 -15 25 -32 58 -38 74 -6 15 -15 27 -20 27 -5 0 -9 4 -9 10 0
5 -17 38 -38 72 -21 35 -46 79 -55 98 -10 19 -41 73 -68 120 -28 47 -55 95
-60 108 -5 12 -13 22 -19 22 -5 0 -10 7 -10 16 0 9 -8 28 -18 42 -16 24 -95
159 -126 217 -34 62 -171 301 -176 305 -5 5 -13 20 -69 125 -30 58 -153 183
-187 191 -13 3 -24 10 -24 15 0 5 -9 9 -20 9 -11 0 -20 4 -20 9 0 5 -12 11
-27 14 -16 3 -39 8 -53 12 -38 11 -190 13 -235 4z"/>
<path d="M4448 9805 c-2 -1 -25 -5 -53 -8 -82 -10 -225 -44 -305 -72 -85 -31
-283 -124 -288 -137 -2 -4 -8 -8 -13 -8 -13 0 -109 -64 -204 -135 -84 -63
-259 -231 -338 -325 -70 -84 -145 -183 -232 -310 -44 -63 -82 -117 -85 -120
-3 -3 -11 -17 -19 -32 -8 -15 -23 -37 -33 -48 -10 -11 -19 -23 -19 -27 -1 -5
-17 -30 -36 -58 -18 -27 -52 -78 -73 -112 l-40 -62 90 -157 c50 -86 90 -161
90 -165 0 -5 3 -9 8 -9 4 0 12 -10 18 -23 23 -49 59 -112 67 -115 4 -2 7 -9 7
-16 0 -8 9 -25 21 -40 11 -14 17 -26 12 -26 -4 0 -3 -4 2 -8 13 -9 145 -239
145 -252 0 -6 5 -10 10 -10 6 0 10 -4 10 -10 0 -5 31 -63 70 -129 38 -66 70
-125 70 -131 0 -5 3 -10 8 -10 4 0 16 -18 26 -40 11 -22 23 -40 28 -40 5 0 34
39 64 88 31 48 69 106 85 129 16 23 29 46 29 51 0 6 3 12 8 14 10 5 62 86 62
98 0 6 6 13 14 16 8 3 17 15 20 27 3 12 16 34 30 48 14 15 22 30 19 33 -4 3
-1 6 5 6 7 0 12 5 12 10 0 6 8 23 19 38 31 44 136 206 140 216 9 22 145 221
152 224 5 2 9 8 9 14 0 19 177 183 236 218 91 55 171 77 262 75 112 -3 237
-49 312 -115 14 -12 37 -32 51 -44 37 -32 129 -148 129 -163 0 -7 5 -13 10
-13 6 0 10 -4 10 -10 0 -5 20 -44 45 -86 25 -41 45 -78 45 -80 0 -2 11 -23 26
-45 14 -22 33 -55 43 -72 10 -18 41 -72 70 -121 28 -49 51 -93 51 -97 0 -5 5
-9 10 -9 6 0 10 -5 10 -10 0 -6 11 -27 23 -48 13 -20 35 -57 49 -82 23 -42
139 -240 194 -334 13 -22 32 -57 42 -76 9 -19 20 -37 23 -40 4 -3 16 -23 28
-45 11 -22 32 -58 46 -80 14 -22 28 -47 32 -55 4 -8 24 -43 45 -78 21 -34 38
-67 38 -72 0 -6 5 -10 12 -10 6 0 8 -3 5 -7 -4 -3 -1 -13 6 -22 12 -14 91
-149 165 -281 14 -25 33 -57 43 -72 11 -14 19 -33 19 -42 0 -9 4 -16 8 -16 5
0 17 -18 28 -40 10 -22 22 -40 27 -40 4 0 7 -4 7 -9 0 -5 47 -90 105 -189 58
-99 105 -185 105 -191 0 -6 4 -11 8 -11 4 0 20 -24 35 -52 16 -29 36 -66 46
-83 10 -16 27 -46 38 -65 27 -46 102 -176 258 -445 70 -121 136 -233 145 -250
30 -51 360 -622 408 -705 11 -19 33 -57 48 -85 14 -27 29 -52 33 -55 3 -3 17
-25 30 -50 13 -25 34 -57 45 -71 12 -14 28 -36 36 -49 92 -138 288 -350 433
-468 90 -73 188 -142 204 -142 6 0 13 -4 15 -9 4 -10 191 -101 208 -101 7 0
26 -6 43 -14 53 -23 115 -37 237 -56 59 -9 317 -6 363 4 15 3 37 8 50 10 86
15 236 65 263 87 9 7 19 13 21 11 4 -3 86 39 153 80 62 37 171 119 211 158 15
14 44 41 65 61 66 61 175 182 234 259 69 91 81 106 90 117 5 7 10 15 10 19 0
3 11 20 25 38 36 44 38 48 54 79 8 15 18 27 23 27 5 0 6 5 3 10 -3 6 -1 10 4
10 6 0 11 4 11 10 0 8 35 66 57 95 5 6 15 23 23 39 29 57 35 66 42 66 5 0 8 6
8 13 1 6 16 37 35 67 19 30 46 80 61 110 15 30 30 57 34 60 3 3 14 22 23 42
10 20 22 40 27 43 18 11 10 37 -28 99 -21 34 -42 68 -45 76 -8 17 -172 290
-184 306 -8 10 -19 28 -52 88 -10 17 -37 61 -59 99 -23 37 -42 71 -42 76 0 5
-3 11 -7 13 -10 4 -42 57 -50 81 -3 9 -9 17 -14 17 -5 0 -9 4 -9 9 0 5 -18 38
-40 72 -22 35 -43 71 -47 79 -4 8 -18 33 -32 55 -14 22 -25 43 -26 47 0 4 -6
13 -12 19 -14 14 -30 -2 -57 -56 -8 -17 -26 -47 -40 -68 -14 -21 -26 -40 -26
-44 0 -4 -67 -122 -110 -193 -5 -8 -26 -44 -47 -80 -20 -36 -43 -71 -50 -78
-7 -7 -13 -18 -13 -23 0 -5 -11 -28 -26 -50 -14 -22 -33 -55 -43 -72 -191
-337 -239 -401 -365 -494 -94 -69 -173 -100 -277 -109 -62 -6 -189 9 -213 24
-6 4 -13 7 -16 7 -53 7 -178 93 -250 173 -33 37 -60 71 -60 75 0 5 -8 21 -18
35 -22 31 -78 132 -101 180 -8 17 -19 32 -23 32 -4 0 -8 9 -8 20 0 11 -4 20
-9 20 -5 0 -11 8 -14 18 -3 9 -19 40 -35 67 -16 28 -35 61 -43 75 -8 14 -19
32 -26 40 -6 8 -11 17 -10 20 0 3 -6 16 -15 30 -21 35 -103 182 -111 200 -4 8
-17 31 -28 50 -20 32 -73 126 -144 255 -15 28 -31 55 -35 60 -4 6 -24 41 -44
78 -20 37 -46 84 -58 105 -11 20 -35 62 -51 92 -17 30 -41 72 -54 92 -13 21
-23 40 -23 42 0 3 -13 27 -29 54 -16 27 -44 76 -62 108 -18 33 -41 75 -52 94
-11 19 -31 55 -45 80 -13 25 -32 59 -42 75 -10 17 -29 50 -42 75 -52 94 -70
125 -80 138 -6 6 -7 12 -2 12 5 0 4 4 -1 8 -10 6 -57 87 -151 257 -15 28 -56
102 -92 165 -124 218 -133 235 -139 253 -3 9 -9 17 -14 17 -5 0 -9 4 -9 9 0 5
-57 109 -126 232 -69 123 -140 249 -156 279 -17 30 -66 117 -110 194 -43 76
-78 140 -78 142 0 2 -18 33 -40 69 -22 36 -40 68 -40 72 0 3 -29 50 -65 104
-36 55 -65 103 -65 107 0 5 -9 17 -20 27 -11 10 -20 22 -20 27 0 8 -38 66 -51
78 -3 3 -21 27 -40 55 -165 237 -399 472 -597 600 -182 117 -342 181 -552 221
-35 7 -316 15 -322 9z"/>
<path d="M8520 9801 c0 -4 -8 -7 -17 -7 -25 -1 -82 -12 -120 -23 -17 -5 -34
-7 -37 -3 -3 3 -6 0 -6 -6 0 -7 -3 -11 -7 -10 -13 4 -133 -36 -133 -44 0 -5
-7 -8 -16 -8 -23 0 -178 -85 -269 -148 -187 -129 -350 -292 -521 -517 -25 -33
-51 -68 -59 -78 -8 -9 -15 -22 -15 -27 0 -6 -4 -10 -10 -10 -5 0 -10 -6 -10
-13 0 -8 -9 -22 -20 -32 -11 -10 -20 -24 -20 -32 0 -7 -4 -13 -9 -13 -4 0 -19
-20 -32 -45 -13 -25 -27 -45 -31 -45 -5 0 -8 -7 -8 -15 0 -8 -4 -15 -10 -15
-5 0 -10 -5 -10 -12 0 -6 -11 -26 -25 -44 -14 -18 -25 -35 -25 -38 0 -3 -16
-30 -35 -61 -26 -41 -34 -61 -29 -80 3 -14 10 -25 14 -25 4 0 11 -11 14 -24 3
-14 12 -31 19 -38 7 -7 21 -29 30 -48 10 -19 27 -51 39 -70 11 -19 110 -192
220 -385 110 -192 207 -361 216 -375 9 -14 15 -27 13 -29 -1 -2 1 -7 6 -10 4
-3 19 -26 32 -51 34 -64 38 -67 68 -64 16 1 36 2 46 3 9 1 17 8 17 16 0 8 4
15 9 15 5 0 13 10 17 23 4 12 10 24 14 27 4 3 35 50 70 105 35 55 92 145 128
200 35 55 91 141 123 190 32 50 62 95 66 100 5 6 12 17 15 25 13 35 130 179
192 238 69 65 165 132 189 132 7 0 17 4 23 9 19 20 122 39 194 36 75 -3 158
-28 228 -67 45 -25 54 -32 137 -113 66 -65 113 -132 203 -295 14 -25 33 -56
42 -70 9 -14 19 -29 21 -35 7 -17 82 -150 88 -155 3 -3 11 -14 17 -25 13 -25
162 -284 174 -305 28 -45 200 -343 200 -346 0 -5 100 -175 121 -206 11 -15 19
-29 19 -32 0 -3 14 -29 31 -58 35 -59 60 -101 97 -168 14 -25 36 -62 49 -82
12 -21 23 -42 23 -47 0 -5 4 -11 8 -13 5 -1 32 -46 62 -98 29 -52 65 -113 79
-135 14 -22 36 -60 50 -85 13 -25 28 -48 33 -51 5 -3 10 -10 10 -15 0 -5 28
-55 62 -112 87 -146 91 -153 115 -195 22 -40 40 -69 68 -114 10 -16 18 -30 18
-33 0 -3 12 -23 26 -45 14 -22 37 -60 50 -85 13 -25 27 -47 30 -50 3 -3 21
-32 39 -65 46 -81 52 -87 65 -61 17 32 78 142 125 226 23 41 58 104 78 140 19
36 67 121 105 190 38 69 82 148 97 175 62 111 151 272 165 295 53 88 69 131
57 148 -7 9 -15 24 -19 32 -4 8 -35 64 -70 123 -35 60 -63 110 -63 113 0 3
-16 30 -35 60 -19 30 -35 56 -35 58 0 2 -22 42 -50 90 -27 48 -50 91 -50 96 0
4 -4 10 -8 12 -5 2 -22 28 -39 58 -33 60 -54 97 -112 198 -21 37 -70 123 -110
192 -39 69 -78 136 -86 150 -8 14 -36 63 -62 110 -26 47 -50 87 -55 88 -4 2
-8 7 -8 11 0 19 -385 680 -476 816 -54 83 -103 155 -109 162 -5 7 -16 19 -22
27 -7 8 -13 18 -13 21 0 3 -9 16 -21 28 -11 12 -38 47 -60 77 -93 128 -230
274 -354 377 -118 98 -124 103 -131 103 -5 0 -66 42 -74 51 -8 10 -151 89
-161 89 -5 0 -9 5 -9 10 0 6 -6 10 -13 10 -7 0 -33 10 -58 22 -24 12 -46 23
-49 23 -3 1 -13 5 -22 9 -9 4 -22 9 -30 10 -7 2 -20 6 -28 9 -39 17 -100 36
-100 31 0 -2 -8 0 -17 5 -10 5 -36 12 -57 15 -21 4 -48 9 -60 11 -58 14 -115
18 -263 20 -90 1 -163 -1 -163 -4z"/>
</g>
</svg>
