<?xml version="1.0" encoding="utf-8"?>
<!-- Generator: Adobe Illustrator 16.0.0, SVG Export Plug-In . SVG Version: 6.00 Build 0)  -->
<!DOCTYPE svg PUBLIC "-//W3C//DTD SVG 1.1//EN" "http://www.w3.org/Graphics/SVG/1.1/DTD/svg11.dtd">
<svg version="1.1" id="Layer_1" xmlns="http://www.w3.org/2000/svg" xmlns:xlink="http://www.w3.org/1999/xlink" x="0px" y="0px"
	 width="500px" height="500px" viewBox="0 0 500 500" enable-background="new 0 0 500 500" xml:space="preserve">
<g>
	<path fill="#232323" d="M158.281,29.01c3.08-1.04,6.39-0.57,9.59-0.65c57.359,0.03,114.73-0.02,172.09,0.03
		c15.391,3.21,29.25,14.2,34.83,29.08c3.141,7.55,3.45,15.84,3.33,23.9c-0.01,112-0.01,224,0,336c0.061,7.73-0.54,15.65-3.62,22.84
		c-6.01,15.11-20.53,26.49-36.62,28.66c-58.34-0.01-116.68,0.02-175.01-0.01c-22.57-3.08-40.79-24.711-40.02-47.49
		c0.34-112.67-0.681-225.33,0.02-338c-0.16-8.65-0.061-17.56,3.24-25.7C131.361,43.57,143.931,33.02,158.281,29.01z M139.75,59.12
		c-3.021,7.88-2.38,16.47-3.18,24.73c75.77,0.04,151.53,0.03,227.29,0c-0.04-7.82,1.029-15.98-2.141-23.39
		c-4.26-11.71-16.77-18.55-28.85-18.35c-56.689,0.76-113.41-0.71-170.1,0.38C152.81,43.24,143.42,49.75,139.75,59.12z M137.63,98.38
		c-0.02,87.82-0.02,175.65,0,263.471c75.41,0.039,150.83,0.029,226.24,0c0-87.82,0-175.65,0-263.48
		C288.45,98.37,213.04,98.36,137.63,98.38z M137.45,376.37c-0.73,14.98-0.141,30-0.35,44.99c-0.17,8.55,1.58,17.72,7.56,24.18
		c5.51,6.28,14,9.27,22.21,9.34c55.67-0.02,111.34-0.02,167.01,0c8.45,0,17.2-3.22,22.801-9.73c5.18-5.93,7.42-14,7.209-21.779
		c-0.199-15.66,0.301-31.33-0.279-46.98C288.22,376.35,212.84,376.38,137.45,376.37z"/>
</g>
<g>
	<path fill="#06CEB1" d="M245.31,394.059c13.271-3.799,27.11,8.24,28.091,21.351c-0.05,11.95-10.7,22.75-22.55,23.47
		c-11.811-0.24-22.621-10.689-23.23-22.5C227.761,406.139,235.7,396.969,245.31,394.059z M246.23,407.899
		c-4.989,1.9-5.449,8.541-3.699,12.861c2.02,4.529,7.97,4.31,12.08,3.479c5.109-1.66,5.189-8.31,3.89-12.58
		C256.71,406.82,250.401,406.719,246.23,407.899z"/>
</g>
</svg>
