<?xml version="1.0" encoding="utf-8"?>
<!-- Generator: Adobe Illustrator 16.0.0, SVG Export Plug-In . SVG Version: 6.00 Build 0)  -->
<!DOCTYPE svg PUBLIC "-//W3C//DTD SVG 1.1//EN" "http://www.w3.org/Graphics/SVG/1.1/DTD/svg11.dtd">
<svg version="1.1" id="Layer_1" xmlns="http://www.w3.org/2000/svg" xmlns:xlink="http://www.w3.org/1999/xlink" x="0px" y="0px"
	 width="500px" height="500px" viewBox="0 0 500 500" enable-background="new 0 0 500 500" xml:space="preserve">
<path fill="#FFFFFF" d="M221.86,20.54c-6.26,1.85-12.81,2.23-19.16,3.69c-23.85,4.86-46.53,15.31-65.57,30.48
	c-14.32,11.12-27.12,24.83-34.61,41.51c-1.17,2.91-2.49,6.19-1.44,9.32c1.21,2.35,3.79,3.93,6.391,4.18c3.59-0.71,6-3.82,8.25-6.45
	c8.49-10.76,16.229-22.3,26.68-31.34c14.78-12.6,31.87-22.57,50.35-28.63c34.08-11.38,71.449-8.01,105.109,3.19
	C324.74,55,350.27,70.38,366.91,93.56c19.32,26.75,25.689,61.11,22.32,93.52c-1.34,13.41-4.34,26.59-5.951,39.96
	c-1.129,8.7-2.17,17.84,0.871,26.28c3.359,10.09,12.1,18.01,22.32,20.76c7.879,3.811,14.709-9.35,7.52-13.58
	c-4.301-2.109-8.77-4.42-11.541-8.5c-4.159-5.76-4.35-13.24-3.569-20.03c2.55-21.96,7.351-43.77,7.08-65.97
	c0.101-25.17-5.94-50.71-19.36-72.18c-16.17-25.95-41.369-45.57-69.22-57.69c-18.739-8.16-39.011-11.68-58.909-15.75
	C246.28,20.26,234.02,19.94,221.86,20.54z"/>
<path fill="#FFFFFF" d="M227.95,67.78c-17.52,2.48-34.43,8.86-49.35,18.37c-17.521,11.27-31.55,27.55-41.06,46.03
	c-7.78,15.12-20.01,28.32-35.7,35.33c-4.42,2.2-9.72,2.98-13.32,6.58c-3.78,3.79-1.48,11.62,3.95,12.33
	c5.189,0.62,10.13-1.6,14.84-3.49c20.26-8.3,35.24-25.58,45.61-44.37c9.78-18.34,24.37-34.53,43.07-44
	c19.4-10.15,41.99-12.57,63.54-10.4c22.601,2.41,44.271,13.38,59.15,30.62c14.221,16.19,22.11,37.69,22.03,59.22
	c-0.06,19.54-4.239,38.73-7.17,57.98c-2.229,15.7-1.8,32.64,6.01,46.85c9.771,17.891,28.671,28.1,47.08,35.05
	c5.21,1.62,10.31,4.45,15.89,4.24c5.82-0.32,8.631-8.761,4.5-12.71c-3.379-3.42-8.24-4.58-12.57-6.311
	c-15.569-5.699-32.52-13.02-40.789-28.359c-5.291-9.65-5.7-21.11-4.23-31.79c2.82-21.02,5.99-41.99,9.07-62.97
	c0.359-2.02,0.029-4.06-0.35-6.04c-2.26-11.55-3.721-23.38-8.041-34.41c-6.35-16.75-17.33-31.65-31.199-42.95
	C293.86,71.99,259.94,63.2,227.95,67.78z"/>
<path fill="#FFFFFF" d="M226.97,115.84c-19.69,3.15-36.08,17.84-43.82,35.87c-10.54,23.84-29.8,43.15-52.65,55.41
	C120.02,213,108.77,217.31,97.36,221c-3.94,1.53-8.4,2.33-11.61,5.27c-5.12,4.83,0.26,15.92,7.52,13.24
	c24.31-7.34,48.36-17.32,68.33-33.31c15.01-12,27.12-27.59,34.92-45.16c5.18-12,15.15-22.02,27.49-26.55
	c18.89-7.22,41.97-1.59,55.12,13.85c6.97,8.11,10.04,19.2,8.771,29.77c-1.031,11.18-6.25,21.33-11.291,31.17
	c-16.25,30.84-41.359,56.35-70.02,75.861c-28.7,19.719-61.24,33.319-94.76,42.389c-3.81,1.181-8.439,2.671-9.92,6.811
	c-0.67,3,0.09,6.59,2.48,8.67c2.93,1.79,6.58,1.58,9.79,0.79c44.54-11.649,87.399-31.51,122.88-61.149
	c27.07-22.391,49.411-51.05,62.12-83.96c3.641-10.03,5.84-20.83,4.74-31.53c-1.369-14.25-8.811-27.71-20.061-36.55
	C267.96,118.29,246.75,113.54,226.97,115.84z"/>
<path fill="#FFFFFF" d="M234.26,174.79c-9.65,21.99-25.29,41.08-44,56c-26.45,21.29-58.021,35.61-90.811,43.95
	c-3.42,0.92-7.21,1.83-9.57,4.689c-2.48,2.98-1.47,7.551,0.78,10.36c2.9,2.8,7.34,2.14,10.91,1.33
	c25.37-6.5,50.09-15.95,72.69-29.261c33.859-19.839,63.79-49.359,77.25-86.85c-3.04-3.17-6.13-7.68-11.1-7.34
	C237.23,168.75,235.52,171.89,234.26,174.79z"/>
<path fill="#FFFFFF" d="M289.75,282.359c-4.62,1.451-6.689,7.291-4.061,11.351c12.84,22.25,33.09,39.56,55.811,51.181
	c14.08,7.319,28.96,13.02,44.141,17.569c4.789,1.729,8.229-3.399,8.889-7.489c0.761-3.841-2.68-6.801-5.899-8.051
	c-18.101-6.25-36.06-13.46-52.159-23.96c-14.561-9.37-27.4-21.64-36.541-36.41C298.08,283.019,293.619,280.42,289.75,282.359z"/>
<path fill="#FFFFFF" d="M243.84,327.63c-5.9,1.81-10.87,5.56-16.15,8.62c-29.18,17.24-60.93,29.73-93.3,39.57
	c-3.32,1.06-6.89,2.199-9.271,4.91c-3.39,3.91-1.02,11.34,4.23,12.129c3.01,0.531,6.03-0.299,8.91-1.119
	c31.68-9.78,63.21-21.131,91.74-38.27c6.4-4.041,13.66-7.451,21.41-6.98c7.18,0.17,13.51,4.15,18.67,8.84
	c27.84,20.59,59.52,35.37,92.01,47.02c4.641,1.95,10.939-0.979,11.15-6.35c1-5.42-4.48-8.51-8.78-10.02
	c-33.61-12.681-66.979-27.971-94.38-51.67C263.08,328.07,253.061,324.3,243.84,327.63z"/>
<path fill="#FFFFFF" d="M233.58,389.08c-22.12,10.641-44.7,20.3-67.26,29.97c-3.03,1.351-6.29,2.761-8.32,5.5
	c-2.55,3.351-1.05,8.37,2.03,10.841c2.68,1.81,6.19,1.219,9.04,0.159c20.19-8.18,40.59-16,59.92-26.11
	c11.69-5.89,25.959-5.869,37.51,0.371c20.1,11.26,41.221,20.56,62.25,29.939c2.66,1.15,6.01,1.98,8.57,0.141
	c2.83-1.871,3.529-5.391,4.029-8.511c-2.49-2.61-4.879-5.479-8.16-7.13c-22.219-11.279-45.039-21.33-67-33.1
	C256.42,385.24,243.96,383.99,233.58,389.08z"/>
<path fill="#FFFFFF" d="M221.18,449.84c-4.13,2.131-8.72,3.58-12.311,6.6c-4.28,3.711-1.49,11.41,3.65,12.73
	c4.79,1.35,9.21-1.65,13.34-3.62c8.34-4.64,17.98-8.3,27.65-6.229c9.02,2.26,17.061,7.16,25.33,11.24
	c2.359,1.14,5.07,0.59,7.6,0.689c2.41-2.67,5.281-5.471,5.57-9.279c-0.439-4.141-4.65-5.921-7.74-7.861
	c-10.289-5.77-20.77-12.6-32.879-13.319C240.66,440.73,230.75,445.55,221.18,449.84z"/>
<path fill="#232323" d="M221.86,20.54c12.16-0.6,24.42-0.28,36.611-0.16c19.898,4.07,40.17,7.59,58.909,15.75
	c27.851,12.12,53.05,31.74,69.22,57.69c13.42,21.47,19.461,47.01,19.36,72.18c0.271,22.2-4.53,44.01-7.08,65.97
	c-0.78,6.79-0.59,14.27,3.569,20.03c2.771,4.08,7.24,6.391,11.541,8.5c7.189,4.23,0.359,17.391-7.52,13.58
	c-10.221-2.75-18.961-10.67-22.32-20.76c-3.041-8.44-2-17.58-0.871-26.28c1.611-13.37,4.611-26.55,5.951-39.96
	c3.369-32.41-3-66.77-22.32-93.52C350.27,70.38,324.74,55,297.86,46.49c-33.66-11.2-71.03-14.57-105.109-3.19
	c-18.48,6.06-35.57,16.03-50.35,28.63c-10.45,9.04-18.19,20.58-26.68,31.34c-2.25,2.63-4.66,5.74-8.25,6.45
	c-2.601-0.25-5.18-1.83-6.391-4.18c-1.05-3.13,0.271-6.41,1.44-9.32c7.49-16.68,20.29-30.39,34.61-41.51
	c19.04-15.17,41.72-25.62,65.57-30.48C209.051,22.77,215.6,22.39,221.86,20.54z"/>
<path fill="#232323" d="M227.95,67.78c31.99-4.58,65.91,4.21,90.96,24.8c13.869,11.3,24.85,26.2,31.199,42.95
	c4.32,11.03,5.781,22.86,8.041,34.41c0.379,1.98,0.709,4.02,0.35,6.04c-3.08,20.98-6.25,41.95-9.07,62.97
	c-1.47,10.68-1.061,22.14,4.23,31.79c8.27,15.34,25.22,22.66,40.789,28.359c4.33,1.73,9.191,2.891,12.57,6.311
	c4.131,3.949,1.32,12.39-4.5,12.71c-5.58,0.21-10.68-2.62-15.89-4.24c-18.409-6.95-37.31-17.159-47.08-35.05
	c-7.81-14.21-8.239-31.15-6.01-46.85c2.931-19.25,7.11-38.44,7.17-57.98c0.08-21.53-7.81-43.03-22.03-59.22
	c-14.879-17.24-36.55-28.21-59.15-30.62c-21.549-2.17-44.139,0.25-63.54,10.4c-18.7,9.47-33.29,25.66-43.07,44
	c-10.37,18.79-25.35,36.07-45.61,44.37c-4.71,1.89-9.65,4.11-14.84,3.49c-5.43-0.71-7.73-8.54-3.95-12.33
	c3.6-3.6,8.9-4.38,13.32-6.58c15.69-7.01,27.92-20.21,35.7-35.33c9.51-18.48,23.54-34.76,41.06-46.03
	C193.52,76.64,210.43,70.26,227.95,67.78z"/>
<path fill="#232323" d="M226.97,115.84c19.78-2.3,40.99,2.45,56.889,14.77c11.25,8.84,18.691,22.3,20.061,36.55
	c1.1,10.7-1.1,21.5-4.74,31.53c-12.709,32.91-35.05,61.57-62.12,83.96c-35.48,29.64-78.34,49.5-122.88,61.149
	c-3.21,0.79-6.86,1-9.79-0.79c-2.39-2.08-3.15-5.67-2.48-8.67c1.48-4.14,6.11-5.63,9.92-6.811
	c33.521-9.069,66.061-22.67,94.76-42.389c28.66-19.511,53.77-45.021,70.02-75.861c5.041-9.84,10.26-19.99,11.291-31.17
	c1.27-10.57-1.801-21.66-8.771-29.77c-13.149-15.44-36.23-21.07-55.12-13.85c-12.34,4.53-22.311,14.55-27.49,26.55
	c-7.8,17.57-19.91,33.16-34.92,45.16c-19.97,15.99-44.021,25.97-68.33,33.31c-7.26,2.68-12.64-8.41-7.52-13.24
	c3.21-2.94,7.67-3.74,11.61-5.27c11.41-3.69,22.66-8,33.14-13.88c22.85-12.26,42.11-31.57,52.65-55.41
	C190.89,133.68,207.28,118.99,226.97,115.84z"/>
<path fill="#06CEB1" d="M234.26,174.79c1.26-2.9,2.97-6.04,6.149-7.12c4.97-0.34,8.061,4.17,11.1,7.34
	c-13.459,37.49-43.39,67.01-77.25,86.85c-22.601,13.311-47.32,22.761-72.69,29.261c-3.57,0.81-8.01,1.47-10.91-1.33
	c-2.25-2.81-3.26-7.38-0.78-10.36c2.36-2.859,6.15-3.77,9.57-4.689c32.79-8.34,64.36-22.66,90.811-43.95
	C208.97,215.87,224.61,196.78,234.26,174.79z"/>
<path fill="#06CEB1" d="M289.75,282.359c3.869-1.939,8.33,0.66,10.18,4.19c9.141,14.771,21.98,27.04,36.541,36.41
	c16.1,10.5,34.059,17.71,52.159,23.96c3.22,1.25,6.66,4.21,5.899,8.051c-0.66,4.09-4.1,9.219-8.889,7.489
	c-15.181-4.55-30.061-10.25-44.141-17.569c-22.721-11.621-42.971-28.931-55.811-51.181C283.061,289.65,285.13,283.81,289.75,282.359
	z"/>
<path fill="#232323" d="M243.84,327.63c9.221-3.33,19.24,0.44,26.24,6.681c27.4,23.699,60.77,38.989,94.38,51.67
	c4.3,1.51,9.78,4.6,8.78,10.02c-0.211,5.37-6.51,8.3-11.15,6.35c-32.49-11.649-64.17-26.43-92.01-47.02
	c-5.16-4.689-11.49-8.67-18.67-8.84c-7.75-0.471-15.01,2.939-21.41,6.98c-28.53,17.139-60.06,28.489-91.74,38.27
	c-2.88,0.82-5.9,1.65-8.91,1.119c-5.25-0.789-7.62-8.219-4.23-12.129c2.38-2.711,5.95-3.851,9.271-4.91
	c32.37-9.84,64.12-22.33,93.3-39.57C232.97,333.189,237.94,329.439,243.84,327.63z"/>
<path fill="#232323" d="M233.58,389.08c10.38-5.09,22.84-3.84,32.61,2.07c21.961,11.77,44.781,21.82,67,33.1
	c3.281,1.65,5.67,4.52,8.16,7.13c-0.5,3.12-1.199,6.64-4.029,8.511c-2.561,1.84-5.91,1.01-8.57-0.141
	c-21.029-9.38-42.15-18.68-62.25-29.939c-11.551-6.24-25.82-6.261-37.51-0.371c-19.33,10.11-39.729,17.931-59.92,26.11
	c-2.85,1.06-6.36,1.65-9.04-0.159c-3.08-2.471-4.58-7.49-2.03-10.841c2.03-2.739,5.29-4.149,8.32-5.5
	C188.88,409.38,211.46,399.72,233.58,389.08z"/>
<path fill="#232323" d="M221.18,449.84c9.57-4.29,19.479-9.109,30.21-9.05c12.109,0.72,22.59,7.55,32.879,13.319
	c3.09,1.94,7.301,3.721,7.74,7.861c-0.289,3.809-3.16,6.609-5.57,9.279c-2.529-0.1-5.24,0.45-7.6-0.689
	c-8.27-4.08-16.311-8.98-25.33-11.24c-9.67-2.07-19.31,1.59-27.65,6.229c-4.13,1.97-8.55,4.97-13.34,3.62
	c-5.14-1.32-7.93-9.02-3.65-12.73C212.46,453.42,217.051,451.97,221.18,449.84z"/>
</svg>
