<?xml version="1.0" encoding="utf-8"?>
<!-- Generator: Adobe Illustrator 16.0.0, SVG Export Plug-In . SVG Version: 6.00 Build 0)  -->
<!DOCTYPE svg PUBLIC "-//W3C//DTD SVG 1.1//EN" "http://www.w3.org/Graphics/SVG/1.1/DTD/svg11.dtd">
<svg version="1.1" xmlns="http://www.w3.org/2000/svg" xmlns:xlink="http://www.w3.org/1999/xlink" x="0px" y="0px" width="500px"
	 height="500px" viewBox="0 0 500 500" enable-background="new 0 0 500 500" xml:space="preserve">
<g id="Layer_1">
	<g id="VS0Zcg_1_">
		<g>
			<path fill-rule="evenodd" clip-rule="evenodd" fill="#06CEB1" d="M37.109,237.185c1.042-7.541,1.863-15.115,3.163-22.621
				c7.951-45.654,28.521-84.775,61.691-117.04c29.837-29.068,65.282-47.979,106.199-55.93c12.551-2.444,25.46-3.009,38.233-4.172
				c2.941-0.256,4.035-0.889,3.967-4.019c-0.222-8.361-0.068-16.757-0.068-25.066c20.004,20.005,39.857,39.823,59.657,59.605
				c-19.612,19.441-39.515,39.224-59.64,59.195c0-7.318,0-14.772,0-22.211c0-6.856,0-6.736-6.738-6.463
				c-32.828,1.265-62.118,12.346-87.783,32.642c-21.373,16.893-37.069,38.164-47.175,63.588
				c-9.044,22.776-12.139,46.372-9.882,70.617c2.086,22.502,8.652,43.789,20.843,62.939c6.651,10.431,14.431,20.176,21.715,30.248
				c-13.73,13.456-28.059,27.477-42.729,41.84c-3.898-4.377-8.857-9.473-13.303-14.979c-28.075-34.658-43.959-74.225-47.482-118.732
				c-0.085-0.992-0.445-1.966-0.667-2.957C37.109,254.848,37.109,246.025,37.109,237.185z"/>
			<path fill-rule="evenodd" clip-rule="evenodd" fill="#06CEB1" d="M249.78,492.91c-20.21-20.159-39.994-39.891-59.69-59.554
				c19.817-19.56,39.771-39.293,59.485-58.784c-0.033-0.171,0.188,0.752,0.188,1.657c0.018,7.781,0.121,15.561-0.034,23.357
				c-0.051,2.685,0.958,3.231,3.438,3.163c34.556-1.196,65.641-12.088,92.417-34.061c30.966-25.391,49.894-58.065,54.971-97.923
				c5.934-46.61-6.89-87.698-38.231-122.886c-1.47-1.643-2.889-3.3-4.343-4.993c14.449-14.106,28.777-28.11,43.602-42.61
				c5.335,6.292,11.678,13.132,17.319,20.519c31.479,41.156,46.063,87.869,43.756,139.489
				c-2.035,45.482-17.304,86.434-45.722,122.135c-32.298,40.609-73.968,66.462-124.836,76.79
				c-12.516,2.548-25.459,3.061-38.215,4.189c-3.111,0.272-4.275,0.956-4.188,4.257C249.951,475.93,249.78,484.224,249.78,492.91z"
				/>
		</g>
	</g>
</g>
<g id="Layer_2">
</g>
</svg>
