<?xml version="1.0" encoding="utf-8"?>
<!-- Generator: Adobe Illustrator 16.0.0, SVG Export Plug-In . SVG Version: 6.00 Build 0)  -->
<!DOCTYPE svg PUBLIC "-//W3C//DTD SVG 1.1//EN" "http://www.w3.org/Graphics/SVG/1.1/DTD/svg11.dtd">
<svg version="1.1" id="Layer_1" xmlns="http://www.w3.org/2000/svg" xmlns:xlink="http://www.w3.org/1999/xlink" x="0px" y="0px"
	 width="500px" height="500px" viewBox="0 0 500 500" enable-background="new 0 0 500 500" xml:space="preserve">
<g>
	<path fill="#232323" d="M238.02,41.74c54.3-6.84,110.91,20.67,140.03,66.81c27.84,43.591,30.261,101.431,7.771,147.78
		c-12.53,26.6-33.17,47.98-51.45,70.6c-8.61,10.95-16.11,23.211-19.2,36.94c-4.04,22.08,2.33,45.19-4.91,66.81
		c-8.699,26.75-38.77,44.141-66.31,38.65c-22.24-3.5-41.18-21.301-47.03-42.891c-4.93-20.51,0.56-41.84-3.7-62.449
		c-1.43-7.03-4.02-13.83-7.78-19.94c-19.39-31.989-49.66-56.569-64.46-91.47c-17.74-39.301-17.82-86.109-0.34-125.51
		C141.06,80.55,187.56,47.02,238.02,41.74z M191.51,71.01c-30.74,16.38-54.41,45.49-64.08,78.961
		c-10.27,34.93-5.59,73.639,11.51,105.649c10.09,19.06,24.52,35.271,38.24,51.739c10.76,13.021,21.28,26.701,27.3,42.65
		c2.39,6.04,3.49,12.471,5.02,18.77c29.89-0.069,59.79,0.011,89.689-0.039c2.391-14.811,8.291-28.891,16.83-41.19
		c17.961-26.45,42.961-47.989,56.82-77.22c16.311-33.96,18.26-74.59,5.141-109.91C366.74,110.63,344.3,85.24,316.1,70.46
		C277.901,50.08,229.54,50.28,191.51,71.01z M209.29,383.23c-0.01,9.91-0.21,19.819,0.1,29.709c0.5,12.84,6.53,25.48,16.75,33.371
		c11.3,8.869,26.87,11.6,40.66,7.89c14.99-3.91,27.5-16.5,30.9-31.671c3.06-12.879,1.28-26.189,1.55-39.279
		C269.26,383.23,239.281,383.26,209.29,383.23z"/>
</g>
<path fill="#06CEB1" d="M248.83,83.19c2.27-1.44,5.08-0.81,7.63-0.74c18.66,1.21,37.01,6.92,53.01,16.6
	c23.311,13.88,41.65,35.45,52.78,60.091c1.7,4.01,3.93,8.06,3.98,12.529c-2.211,4.67-9.48,5.08-12.551,1.12
	c-1.33-1.92-2.02-4.17-2.899-6.29c-13.391-32.43-41.921-58.9-76.23-67.43c-7.55-2.07-15.37-2.69-23.13-3.23
	C245.5,95.26,244.01,86.18,248.83,83.19z"/>
</svg>
