<?xml version="1.0" encoding="utf-8"?>
<!-- Generator: Adobe Illustrator 16.0.0, SVG Export Plug-In . SVG Version: 6.00 Build 0)  -->
<!DOCTYPE svg PUBLIC "-//W3C//DTD SVG 1.1//EN" "http://www.w3.org/Graphics/SVG/1.1/DTD/svg11.dtd">
<svg version="1.1" id="Layer_1" xmlns="http://www.w3.org/2000/svg" xmlns:xlink="http://www.w3.org/1999/xlink" x="0px" y="0px"
	 width="500px" height="500px" viewBox="0 0 500 500" enable-background="new 0 0 500 500" xml:space="preserve">
<g>
	<path fill="#FFFFFF" d="M213.861,77.02c-15.149,1.93-30.101,6.64-43.25,14.44c-5.42,3.8-0.39,13.17,5.72,11.91
		c3.61-1.22,6.76-3.51,10.32-4.89c36.96-16.5,82.08-8.92,113.66,15.66c2.479,1.97,5.529,4.5,8.939,3.18
		c4.08-0.98,8.15-6.77,4.01-10.09C285.91,84.6,249.311,72.6,213.861,77.02z"/>
</g>
<g>
	<path fill="#232323" d="M206.26,38.16c35.73-5.04,73.11,2.5,104.021,21.14c25.25,15.04,46.05,37.33,59.51,63.45
		c17.55,33.6,22.3,73.6,13.29,110.41c-7.79,32.93-26.529,63.08-52.48,84.78c26.171,41.149,52.4,82.26,78.591,123.39
		c2.01,3.25,3.239,6.99,3.399,10.82c0.99,12.33-11.16,23.25-23.199,22.189c-7.84,0.141-14.62-5.359-18.601-11.729
		c-25.77-40.489-51.61-80.94-77.36-121.44c-49.52,22.58-110.449,17.09-155.109-14.01c-26.33-17.88-46.84-44.02-58.359-73.65
		c-13.121-33.359-14.24-71.199-3.48-105.369c7.92-25.42,22.32-48.84,41.66-67.17C142.021,57.9,173.361,42.68,206.26,38.16z
		 M212.891,51.99c-38.311,3.98-74.59,24.14-98.28,54.49c-22.91,28.97-33.979,66.96-30.21,103.71c4.16,44.229,30.15,85.7,68.1,108.79
		c33.82,21.02,76.5,27.07,114.811,16.17c40.27-11.16,75.02-40.6,92.33-78.66c13.38-28.91,16.979-62.29,9.64-93.32
		c-7.62-33.02-27.29-63.14-54.521-83.32C285.901,58.23,248.74,48.03,212.891,51.99z M306.5,334.5
		c25.311,39.84,50.73,79.601,76.061,119.42c1.76,2.83,4.229,5.811,7.76,6.271c3-0.29,5.609-2.33,7.34-4.72
		c1.52-3.541-1.16-6.87-2.939-9.711c-25.24-39.639-50.57-79.229-75.721-118.93C314.83,329.39,310.801,332.179,306.5,334.5z"/>
</g>
<path fill="#06CEB1" d="M213.861,77.02c35.45-4.42,72.05,7.58,99.399,30.21c4.141,3.32,0.07,9.11-4.01,10.09
	c-3.41,1.32-6.46-1.21-8.939-3.18c-31.58-24.58-76.7-32.16-113.66-15.66c-3.561,1.38-6.71,3.67-10.32,4.89
	c-6.109,1.26-11.14-8.11-5.72-11.91C183.76,83.66,198.711,78.95,213.861,77.02z"/>
</svg>
