<?xml version="1.0" encoding="utf-8"?>
<!-- Generator: Adobe Illustrator 16.0.0, SVG Export Plug-In . SVG Version: 6.00 Build 0)  -->
<!DOCTYPE svg PUBLIC "-//W3C//DTD SVG 1.1//EN" "http://www.w3.org/Graphics/SVG/1.1/DTD/svg11.dtd">
<svg version="1.1" id="Layer_1" xmlns="http://www.w3.org/2000/svg" xmlns:xlink="http://www.w3.org/1999/xlink" x="0px" y="0px"
	 width="500px" height="500px" viewBox="0 0 500 500" enable-background="new 0 0 500 500" xml:space="preserve">
<path fill-rule="evenodd" clip-rule="evenodd" fill="#FFFFFF" stroke="#000000" stroke-width="13" stroke-miterlimit="10" stroke-dasharray="31,12" d="
	M347.755,215.201c0,20.565-16.673,37.238-37.239,37.238H62.741c-20.567,0-37.24-16.673-37.24-37.238V87.946
	c0-20.567,16.673-37.239,37.24-37.239h247.774c20.566,0,37.239,16.672,37.239,37.239V215.201z"/>
<g>
	<g>
		<path fill="#06CEB1" d="M443.916,375.782c6.057-6.953,9.388-15.229,9.388-24.499c0-3.186,0-6.37,0-9.555
			c0-13.811,0-27.62,0-41.431c0-24.418,0-48.836,0-73.254c0-19.273-15.856-35.251-35.165-35.251c-6.124,0-12.248,0-18.372,0
			c-29.629,0-59.257,0-88.886,0c-25.148,0-50.297,0-75.446,0c-12.067,0-23.273,2.575-31.651,12.164
			c-8.301,9.502-8.497,20.758-8.497,32.47c0,29.606,0,59.211,0,88.816c0,8.775,0,17.551,0,26.326
			c0,19.294,15.75,35.364,35.139,35.364c46.941,0,93.882,0,140.824,0c0.245,0,0.491,0,0.737,0c8.061,0,8.061-12.5,0-12.5
			c-46.729,0-93.46,0-140.19,0c-13.471,0-24.01-9.548-24.01-23.323c0-9.471,0-18.94,0-28.41c0-29.301,0-58.601,0-87.901
			c0-2.616,0-5.232,0-7.848c0-9.412,5.532-17.008,13.855-20.989c5.712-2.732,14.146-1.668,20.34-1.668c27.937,0,55.872,0,83.809,0
			c27.438,0,54.876,0,82.314,0c7.798,0,15.27-0.671,22.304,3.521c10.723,6.39,10.396,17.885,10.396,28.613
			c0,24.519,0,49.039,0,73.558c0,10.957,0,21.914,0,32.871c0,8.697,0.507,16.931-5.726,24.088
			C429.81,372.993,438.614,381.872,443.916,375.782L443.916,375.782z"/>
	</g>
</g>
<g>
	<g>
		<path d="M376.87,317.136c-6.242,36.244-12.484,72.488-18.727,108.733c-0.825,4.796,3.976,9.887,8.814,6.775
			c11.276-7.249,22.552-14.498,33.828-21.747c-2.938-1.195-5.876-2.391-8.814-3.586c7.652,22.351,15.304,44.701,22.955,67.052
			c0.988,2.885,4.176,5.376,7.381,4.191c9.263-3.424,18.525-6.847,27.787-10.27c2.935-1.085,5.29-4.083,4.191-7.381
			c-7.249-21.747-14.498-43.493-21.747-65.239c-1.929,2.531-3.857,5.063-5.786,7.595c12.484-1.007,24.968-2.013,37.452-3.02
			c4.882-0.394,8.375-6.416,4.242-10.242c-27.183-25.17-54.365-50.34-81.549-75.51c-5.668-5.249-14.174,3.217-8.484,8.484
			c27.183,25.17,54.365,50.34,81.549,75.51c1.414-3.414,2.828-6.828,4.242-10.242c-12.484,1.007-24.968,2.013-37.452,3.02
			c-3.673,0.296-7.104,3.64-5.786,7.595c7.249,21.747,14.498,43.493,21.747,65.239c1.397-2.46,2.794-4.92,4.191-7.381
			c-9.263,3.424-18.525,6.847-27.787,10.27c2.46,1.397,4.92,2.794,7.381,4.191c-7.652-22.351-15.304-44.701-22.955-67.052
			c-1.202-3.512-5.381-5.793-8.814-3.586c-11.276,7.249-22.552,14.498-33.828,21.747c2.938,2.259,5.876,4.517,8.814,6.775
			c6.242-36.244,12.484-72.488,18.727-108.733C389.745,312.76,378.182,309.521,376.87,317.136z"/>
	</g>
</g>
</svg>
