<svg width="165" height="100" xmlns="http://www.w3.org/2000/svg">

 <g>
  <title>background</title>
  <rect fill="none" id="canvas_background" height="102" width="167" y="-1" x="-1"/>
 </g>
 <g>
  <title>Layer 1</title>
  <path id="svg_1" d="m27.919,69.021" fill="#1E1E1E"/>
  <path id="svg_2" d="m96.851524,40.015199l5.744,-8.921c0,0 3.023,-5.074 7.304,-5.074c4.382,0 6.688,4.151 6.688,4.151l12.188,21.059l8.341,14.147c0.419,-0.755 0.84,-1.509 1.259,-2.263l6.362,-11.438l-14.766,-25.761c-2.532,-3.819 -5.252,-8.029 -8.917,-10.869c-3.56,-2.758 -7.175,-4.419 -11.736,-4.66c-6.489,-0.342 -12.023,3.74 -15.86,8.641c-1.849,2.359 -3.437,4.823 -4.935,7.341l7.856,13.703l0.472,-0.056z" stroke-miterlimit="10" stroke="#1E1E1E" fill="#1E1E1E"/>
  <path id="svg_3" d="m149.833524,42.320199l12.477,-22.241c4.405,-7.923 -7.725,-15.003 -12.126,-7.089c-2.912,5.237 -5.596,9.867 -8.508,15.104l8.157,14.226z" stroke-miterlimit="10" stroke="#1E1E1E" fill="#1E1E1E"/>
  <path id="svg_4" d="m124.007524,61.732199l-6.651,11.39c0,0 -2.537,4.254 -6.817,4.254c-4.65,0 -6.795,-3.913 -6.795,-3.913l-27.225,-48.447c-1.258,-2.048 -2.595,-4.055 -4.109,-5.989c-3.838,-4.9 -9.371,-8.982 -15.861,-8.641c-4.562,0.241 -8.176,1.902 -11.736,4.66c-3.685,2.855 -6.415,7.098 -8.959,10.934c-0.471,0.711 -0.933,1.429 -1.393,2.147l7.982,13.923l7.054,-10.956c0,0 3.023,-5.074 7.304,-5.074c4.382,0 6.688,4.151 6.688,4.151l30.594,52.855c4.135,5.871 9.572,11.031 17.19,10.727c10.356,-0.415 16.009,-10.69 20.424,-18.631c0.051,-0.091 0.101,-0.182 0.151,-0.272l-7.841,-13.118z" stroke-miterlimit="10" stroke="#1E1E1E" fill="#1E1E1E"/>
  <path id="svg_5" d="m70.100524,60.657199l-7.278,12.464c0,0 -2.536,4.254 -6.816,4.254c-4.651,0 -6.794,-3.913 -6.794,-3.913l-24.298,-43.236l-10.349,-18.057c-2.461,-3.063 -5.674,-2.589 -7.511,-1.95c-3.437,1.562 -5.871,5.587 -3.496,9.859l23.935,43.036c2.226,4.003 4.451,8.006 6.679,12.008c4.415,7.94 10.066,18.216 20.424,18.631c10.238,0.41 16.539,-9.049 21.031,-16.842c0.526,-0.912 1.361,-2.408 1.887,-3.32l-7.414,-12.934z" stroke-miterlimit="10" stroke="#1E1E1E" fill="#1E1E1E"/>
 </g>
</svg>